<svg width="16" height="11" viewBox="0 0 16 11" fill="none" xmlns="http://www.w3.org/2000/svg">
<path fill-rule="evenodd" clip-rule="evenodd" d="M4.62711 0C5.09529 0 5.52079 0.0400154 5.90761 0.125382C6.29242 0.212082 6.62121 0.345466 6.89799 0.532205C7.17142 0.718943 7.38684 0.965705 7.53823 1.27916C7.68829 1.59261 7.76499 1.97943 7.76499 2.43294C7.76499 2.92646 7.65161 3.33995 7.42686 3.67341C7.20144 4.00687 6.86864 4.27364 6.42514 4.48706C7.02937 4.66046 7.47621 4.96724 7.77366 5.40074C8.07244 5.84091 8.21716 6.36778 8.21716 6.97468C8.21716 7.47487 8.13046 7.90171 7.94372 8.26184C7.75698 8.62865 7.49688 8.92877 7.17009 9.16219C6.84997 9.39428 6.46982 9.56234 6.05633 9.67372C5.64951 9.78376 5.22134 9.84312 4.78251 9.84312H0V0.00466846H4.62711V0ZM11.2977 8.11112C11.5911 8.39656 12.0133 8.53995 12.5608 8.53995C12.9543 8.53995 13.2944 8.44125 13.5812 8.24184C13.864 8.04843 14.0347 7.83501 14.1014 7.61493H15.8274C15.5587 8.46859 15.1285 9.08216 14.5603 9.44897C13.9934 9.82244 13.3038 10.0025 12.5061 10.0025C11.9479 10.0025 11.4497 9.91581 10.9909 9.73574C10.5421 9.55567 10.1639 9.30224 9.84379 8.97545C9.53433 8.64866 9.29491 8.25517 9.12551 7.795C8.95678 7.33482 8.87675 6.82796 8.87675 6.28108C8.87675 5.74554 8.96678 5.25402 9.14552 4.79384C9.32559 4.327 9.57502 3.94018 9.89247 3.60005C10.2226 3.25992 10.6014 3.00315 11.0502 2.80374C11.4991 2.60433 11.9839 2.51497 12.5308 2.51497C13.1377 2.51497 13.6579 2.62434 14.1181 2.86377C14.5649 3.09052 14.9317 3.41065 15.2252 3.79746C15.5186 4.18828 15.7254 4.63778 15.8521 5.14465C15.9788 5.64484 16.0188 6.17171 15.9922 6.73192H10.8635C10.8635 7.29214 11.0503 7.82034 11.337 8.10912L11.2837 8.12913L11.2977 8.11112ZM4.46838 8.14447C4.6798 8.14447 4.88188 8.12446 5.07262 8.08244C5.26603 8.04243 5.43809 7.9724 5.58148 7.88236C5.72153 7.79233 5.84158 7.66361 5.92828 7.49355C6.01498 7.33349 6.055 7.1134 6.055 6.8533C6.055 6.35311 5.90827 5.99297 5.62816 5.77289C5.34139 5.55947 4.96791 5.45276 4.50106 5.45276H2.16083V8.1538H4.46838V8.13379V8.14447ZM13.5432 4.37635C13.3085 4.11958 12.9163 3.98153 12.4381 3.98153C12.126 3.98153 11.8679 4.03088 11.6605 4.14026C11.4591 4.2403 11.2937 4.37368 11.167 4.53374C11.0402 4.69381 10.9555 4.85387 10.9055 5.03394C10.8555 5.20734 10.8255 5.3674 10.8155 5.50745H13.9914C13.9447 5.00726 13.7713 4.64045 13.5379 4.38035V4.38702L13.5432 4.37635ZM4.34834 3.96619C4.73115 3.96619 5.04861 3.87682 5.2987 3.69142C5.54813 3.51135 5.66818 3.21124 5.66818 2.79908C5.66818 2.56965 5.6215 2.38225 5.54813 2.23486C5.46143 2.08814 5.34806 1.97476 5.21467 1.89339C5.07462 1.8107 4.91456 1.75334 4.73449 1.722C4.55442 1.68665 4.36101 1.67264 4.17427 1.67264H2.15416V3.96686H4.34834V3.96619ZM10.416 0.659587H14.3962V1.62929H10.416V0.651584V0.658253V0.659587Z" fill="#3D3D3D"/>
</svg>
