<svg width="42" height="42" viewBox="0 0 42 42" fill="none" xmlns="http://www.w3.org/2000/svg">
<path fill-rule="evenodd" clip-rule="evenodd" d="M33.9067 8.68001C33.8845 8.68001 33.8624 8.6796 33.8404 8.67878H8.1596C8.13761 8.6796 8.11552 8.68001 8.09333 8.68001C8.07114 8.68001 8.04905 8.6796 8.02706 8.67878H6.92001C5.29997 8.67878 3.98668 9.99208 3.98668 11.6121V15.7193H38.0133V11.6121C38.0133 9.99208 36.7001 8.67878 35.08 8.67878H33.973C33.951 8.6796 33.9289 8.68001 33.9067 8.68001ZM6.33333 5.18562C3.04419 5.48203 0.466675 8.24633 0.466675 11.6126V15.7193V19.2393V35.0793C0.466675 38.6434 3.35593 41.5326 6.92001 41.5326H35.08C38.6441 41.5326 41.5333 38.6434 41.5333 35.0793V19.2393V15.7193V11.6126C41.5333 8.24633 38.9558 5.48203 35.6667 5.18562V2.22667C35.6667 1.25465 34.8787 0.466675 33.9067 0.466675C32.9347 0.466675 32.1467 1.25465 32.1467 2.22667V5.15931H9.85333V2.22667C9.85333 1.25465 9.06535 0.466675 8.09333 0.466675C7.12131 0.466675 6.33333 1.25465 6.33333 2.22667V5.18562ZM3.98668 19.2393V35.0788C3.98668 36.6988 5.29997 38.0121 6.92001 38.0121H35.08C36.7001 38.0121 38.0133 36.6988 38.0133 35.0788V19.2393H3.98668Z" fill="white"/>
</svg>
