<svg width="42" height="42" viewBox="0 0 42 42" fill="none" xmlns="http://www.w3.org/2000/svg">
<path fill-rule="evenodd" clip-rule="evenodd" d="M25.1798 1.00118C25.5819 0.545716 26.2094 0.361084 26.7941 0.526246C28.3958 0.97868 29.9339 1.61763 31.3806 2.42781C31.9104 2.72456 32.2234 3.2987 32.1857 3.90484L31.9136 8.27699C31.908 8.36781 31.9416 8.45668 32.0059 8.52103L33.479 9.99409C33.5433 10.0584 33.6322 10.0921 33.723 10.0864L38.0952 9.81434C38.7013 9.77662 39.2755 10.0896 39.5722 10.6194C40.3824 12.0661 41.0213 13.6042 41.4738 15.2059C41.6389 15.7906 41.4543 16.4182 40.9988 16.8203L37.7136 19.7206C37.6454 19.7808 37.6063 19.8674 37.6063 19.9584V22.0416C37.6063 22.1326 37.6454 22.2192 37.7136 22.2795L40.9988 25.1798C41.4543 25.5819 41.6389 26.2095 41.4738 26.7941C41.0213 28.3958 40.3824 29.9339 39.5722 31.3806C39.2755 31.9104 38.7013 32.2234 38.0952 32.1857L33.723 31.9136C33.6322 31.908 33.5433 31.9416 33.479 32.0059L32.0059 33.479C31.9416 33.5433 31.908 33.6322 31.9136 33.723L32.1857 38.0952C32.2234 38.7013 31.9104 39.2755 31.3806 39.5722C29.9375 40.3804 28.4033 41.0182 26.8059 41.4704C26.2202 41.6363 25.5913 41.451 25.1891 40.994L22.3018 37.714C22.2416 37.6455 22.1548 37.6063 22.0637 37.6063H19.9584C19.8674 37.6063 19.7808 37.6454 19.7206 37.7136L16.8203 40.9988C16.4182 41.4543 15.7906 41.6389 15.2059 41.4738C13.609 41.0227 12.0752 40.3862 10.6323 39.5794C10.101 39.2824 9.78757 38.7066 9.82644 38.0991L10.1052 33.7424C10.111 33.6514 10.0774 33.5623 10.0129 33.4978L8.52102 32.0059C8.45668 31.9416 8.3678 31.908 8.27698 31.9136L3.90484 32.1857C3.29869 32.2234 2.72455 31.9104 2.4278 31.3806C1.61762 29.9339 0.978673 28.3958 0.526238 26.7941C0.361077 26.2095 0.545708 25.5819 1.00118 25.1798L4.28639 22.2795C4.3546 22.2192 4.39367 22.1326 4.39367 22.0416V19.9584C4.39367 19.8674 4.3546 19.7808 4.28639 19.7206L1.00118 16.8203C0.545708 16.4182 0.361077 15.7906 0.526238 15.2059C0.978673 13.6042 1.61762 12.0661 2.4278 10.6194C2.72455 10.0896 3.29869 9.77662 3.90484 9.81434L8.27698 10.0864C8.3678 10.0921 8.45668 10.0584 8.52102 9.99409L9.99409 8.52103C10.0584 8.45668 10.092 8.36781 10.0864 8.27699L9.81433 3.90484C9.77661 3.2987 10.0896 2.72456 10.6194 2.42781C12.0661 1.61763 13.6042 0.97868 15.2059 0.526246C15.7906 0.361084 16.4182 0.545716 16.8203 1.00118L19.7206 4.28639C19.7808 4.35461 19.8674 4.39368 19.9584 4.39368H22.0416C22.1326 4.39368 22.2192 4.35461 22.2795 4.28639L25.1798 1.00118ZM24.649 6.3783C23.9888 7.12614 23.0392 7.55449 22.0416 7.55449H19.9584C18.9608 7.55449 18.0113 7.12614 17.3511 6.3783L15.1283 3.86053C14.4114 4.10605 13.7117 4.39641 13.0326 4.72963L13.2411 8.08069C13.3031 9.07634 12.9345 10.0507 12.2291 10.7561L10.7561 12.2291C10.0507 12.9345 9.07634 13.3031 8.08069 13.2411L4.72963 13.0326C4.3964 13.7117 4.10604 14.4114 3.86052 15.1283L6.37829 17.3511C7.12613 18.0113 7.55448 18.9608 7.55448 19.9584V22.0416C7.55448 23.0392 7.12613 23.9888 6.37829 24.649L3.86052 26.8718C4.10604 27.5886 4.3964 28.2884 4.72963 28.9675L8.08069 28.7589C9.07634 28.697 10.0507 29.0655 10.7561 29.7709L12.2479 31.2628C12.9548 31.9697 13.3234 32.9466 13.2595 33.9442L13.0463 37.2771C13.7211 37.6076 14.4163 37.8957 15.1283 38.1395L17.3511 35.6218C18.0113 34.8739 18.9608 34.4456 19.9584 34.4456H22.0637C23.063 34.4456 24.014 34.8754 24.6743 35.6255L26.8837 38.1354C27.5964 37.8908 28.2922 37.6018 28.9675 37.2704L28.7589 33.9194C28.697 32.9237 29.0655 31.9494 29.7709 31.244L31.244 29.7709C31.9494 29.0655 32.9237 28.697 33.9193 28.7589L37.2704 28.9675C37.6036 28.2884 37.894 27.5886 38.1395 26.8718L35.6217 24.649C34.8739 23.9888 34.4456 23.0392 34.4456 22.0416V19.9584C34.4456 18.9608 34.8739 18.0113 35.6217 17.3511L38.1395 15.1283C37.894 14.4114 37.6036 13.7117 37.2704 13.0326L33.9193 13.2411C32.9237 13.3031 31.9494 12.9345 31.244 12.2291L29.7709 10.7561C29.0655 10.0507 28.697 9.07634 28.7589 8.08069L28.9675 4.72963C28.2884 4.39641 27.5886 4.10605 26.8717 3.86053L24.649 6.3783ZM20.9881 30.9973C26.5161 30.9973 30.9973 26.5161 30.9973 20.9881C30.9973 15.4602 26.5161 10.979 20.9881 10.979C15.4602 10.979 10.979 15.4602 10.979 20.9881C10.979 26.5161 15.4602 30.9973 20.9881 30.9973ZM20.9881 27.8365C17.2059 27.8365 14.1398 24.7704 14.1398 20.9881C14.1398 17.2058 17.2059 14.1397 20.9881 14.1397C24.7704 14.1397 27.8365 17.2058 27.8365 20.9881C27.8365 24.7704 24.7704 27.8365 20.9881 27.8365Z" fill="white"/>
</svg>
