<svg width="16" height="14" viewBox="0 0 16 14" fill="none" xmlns="http://www.w3.org/2000/svg">
<path fill-rule="evenodd" clip-rule="evenodd" d="M15.9687 1.5486C15.3787 1.80792 14.7487 1.98458 14.0854 2.06525C14.7614 1.65793 15.2814 1.01596 15.5274 0.24999C14.8934 0.619974 14.1907 0.889296 13.4428 1.03929C12.8455 0.399983 11.9942 0 11.0489 0C9.23762 0 7.76901 1.46861 7.76901 3.27786C7.76901 3.53785 7.79901 3.78784 7.85367 4.02717C5.12712 3.8985 2.71055 2.58923 1.09329 0.609975C0.808633 1.09129 0.649306 1.6506 0.649306 2.25991C0.649306 3.39986 1.22928 4.40182 2.10791 4.99046C1.56993 4.97313 1.06396 4.82513 0.622641 4.57981V4.62047C0.622641 6.21041 1.75126 7.53635 3.2532 7.83834C2.97788 7.91234 2.68722 7.95234 2.38923 7.95234C2.17991 7.95234 1.97925 7.93234 1.77859 7.895C2.19924 9.19695 3.40852 10.1462 4.8478 10.1729C3.72784 11.0522 2.30857 11.5762 0.779967 11.5762C0.519978 11.5762 0.260656 11.5609 0 11.5315C1.45927 12.4608 3.17853 13.0041 5.03779 13.0041C11.0735 13.0041 14.3701 8.007 14.3701 3.68051C14.3701 3.54119 14.3701 3.40052 14.3601 3.26053C15.0007 2.80122 15.56 2.22057 16 1.56193L15.9687 1.5486Z" fill="#3D3D3D"/>
</svg>
